<?xml version="1.0" encoding="UTF-8"?>
<!DOCTYPE svg PUBLIC "-//W3C//DTD SVG 1.1//EN" "http://www.w3.org/Graphics/SVG/1.1/DTD/svg11.dtd">
<svg version="1.2" width="127.61mm" height="53.63mm" viewBox="2173 2773 12761 5363" preserveAspectRatio="xMidYMid" fill-rule="evenodd" stroke-width="28.222" stroke-linejoin="round" xmlns="http://www.w3.org/2000/svg" xmlns:ooo="http://xml.openoffice.org/svg/export" xmlns:xlink="http://www.w3.org/1999/xlink" xmlns:presentation="http://sun.com/xmlns/staroffice/presentation" xmlns:smil="http://www.w3.org/2001/SMIL20/" xmlns:anim="urn:oasis:names:tc:opendocument:xmlns:animation:1.0" xml:space="preserve">
 <defs class="EmbeddedBulletChars">
  <g id="bullet-char-template-57356" transform="scale(0.00048828125,-0.00048828125)">
   <path d="M 580,1141 L 1163,571 580,0 -4,571 580,1141 Z"/>
  </g>
  <g id="bullet-char-template-57354" transform="scale(0.00048828125,-0.00048828125)">
   <path d="M 8,1128 L 1137,1128 1137,0 8,0 8,1128 Z"/>
  </g>
  <g id="bullet-char-template-10146" transform="scale(0.00048828125,-0.00048828125)">
   <path d="M 174,0 L 602,739 174,1481 1456,739 174,0 Z M 1358,739 L 309,1346 659,739 1358,739 Z"/>
  </g>
  <g id="bullet-char-template-10132" transform="scale(0.00048828125,-0.00048828125)">
   <path d="M 2015,739 L 1276,0 717,0 1260,543 174,543 174,936 1260,936 717,1481 1274,1481 2015,739 Z"/>
  </g>
  <g id="bullet-char-template-10007" transform="scale(0.00048828125,-0.00048828125)">
   <path d="M 0,-2 C -7,14 -16,27 -25,37 L 356,567 C 262,823 215,952 215,954 215,979 228,992 255,992 264,992 276,990 289,987 310,991 331,999 354,1012 L 381,999 492,748 772,1049 836,1024 860,1049 C 881,1039 901,1025 922,1006 886,937 835,863 770,784 769,783 710,716 594,584 L 774,223 C 774,196 753,168 711,139 L 727,119 C 717,90 699,76 672,76 641,76 570,178 457,381 L 164,-76 C 142,-110 111,-127 72,-127 30,-127 9,-110 8,-76 1,-67 -2,-52 -2,-32 -2,-23 -1,-13 0,-2 Z"/>
  </g>
  <g id="bullet-char-template-10004" transform="scale(0.00048828125,-0.00048828125)">
   <path d="M 285,-33 C 182,-33 111,30 74,156 52,228 41,333 41,471 41,549 55,616 82,672 116,743 169,778 240,778 293,778 328,747 346,684 L 369,508 C 377,444 397,411 428,410 L 1163,1116 C 1174,1127 1196,1133 1229,1133 1271,1133 1292,1118 1292,1087 L 1292,965 C 1292,929 1282,901 1262,881 L 442,47 C 390,-6 338,-33 285,-33 Z"/>
  </g>
  <g id="bullet-char-template-9679" transform="scale(0.00048828125,-0.00048828125)">
   <path d="M 813,0 C 632,0 489,54 383,161 276,268 223,411 223,592 223,773 276,916 383,1023 489,1130 632,1184 813,1184 992,1184 1136,1130 1245,1023 1353,916 1407,772 1407,592 1407,412 1353,268 1245,161 1136,54 992,0 813,0 Z"/>
  </g>
  <g id="bullet-char-template-8226" transform="scale(0.00048828125,-0.00048828125)">
   <path d="M 346,457 C 273,457 209,483 155,535 101,586 74,649 74,723 74,796 101,859 155,911 209,963 273,989 346,989 419,989 480,963 531,910 582,859 608,796 608,723 608,648 583,586 532,535 482,483 420,457 346,457 Z"/>
  </g>
  <g id="bullet-char-template-8211" transform="scale(0.00048828125,-0.00048828125)">
   <path d="M -4,459 L 1135,459 1135,606 -4,606 -4,459 Z"/>
  </g>
  <g id="bullet-char-template-61548" transform="scale(0.00048828125,-0.00048828125)">
   <path d="M 173,740 C 173,903 231,1043 346,1159 462,1274 601,1332 765,1332 928,1332 1067,1274 1183,1159 1299,1043 1357,903 1357,740 1357,577 1299,437 1183,322 1067,206 928,148 765,148 601,148 462,206 346,322 231,437 173,577 173,740 Z"/>
  </g>
 </defs>
 <g class="Page">
  <g class="com.sun.star.drawing.CustomShape">
   <g id="id3">
    <rect class="BoundingBox" stroke="none" fill="none" x="2173" y="2773" width="1656" height="1256"/>
    <path fill="none" stroke="rgb(180,199,220)" stroke-width="53" stroke-linejoin="round" d="M 2200,2941 L 2200,2941 C 2200,2916 2209,2892 2225,2871 2242,2849 2266,2831 2294,2819 2323,2807 2355,2800 2388,2800 L 3612,2800 3613,2800 C 3646,2800 3678,2807 3707,2819 3735,2831 3759,2849 3776,2871 3792,2892 3801,2916 3801,2941 L 3801,2941 3800,3859 3801,3860 C 3801,3885 3792,3909 3776,3930 3759,3952 3735,3970 3707,3982 3678,3994 3646,4001 3613,4001 L 2388,4001 2388,4001 C 2355,4001 2323,3994 2294,3982 2266,3970 2242,3952 2225,3930 2209,3909 2200,3885 2200,3860 L 2200,2941 Z"/>
   </g>
  </g>
  <g class="com.sun.star.drawing.CustomShape">
   <g id="id4">
    <rect class="BoundingBox" stroke="none" fill="none" x="4294" y="2774" width="1656" height="1256"/>
    <path fill="none" stroke="rgb(180,199,220)" stroke-width="53" stroke-linejoin="round" d="M 4321,2942 L 4321,2942 C 4321,2917 4330,2893 4346,2872 4363,2850 4387,2832 4415,2820 4444,2808 4476,2801 4509,2801 L 5733,2801 5734,2801 C 5767,2801 5799,2808 5828,2820 5856,2832 5880,2850 5897,2872 5913,2893 5922,2917 5922,2942 L 5922,2942 5921,3860 5922,3861 C 5922,3886 5913,3910 5897,3931 5880,3953 5856,3971 5828,3983 5799,3995 5767,4002 5734,4002 L 4509,4002 4509,4002 C 4476,4002 4444,3995 4415,3983 4387,3971 4363,3953 4346,3931 4330,3910 4321,3886 4321,3861 L 4321,2942 Z"/>
   </g>
  </g>
  <g class="com.sun.star.drawing.CustomShape">
   <g id="id5">
    <rect class="BoundingBox" stroke="none" fill="none" x="6415" y="2775" width="1656" height="1256"/>
    <path fill="none" stroke="rgb(180,199,220)" stroke-width="53" stroke-linejoin="round" d="M 6442,2943 L 6442,2943 C 6442,2918 6451,2894 6467,2873 6484,2851 6508,2833 6536,2821 6565,2809 6597,2802 6630,2802 L 7854,2802 7855,2802 C 7888,2802 7920,2809 7949,2821 7977,2833 8001,2851 8018,2873 8034,2894 8043,2918 8043,2943 L 8043,2943 8042,3861 8043,3862 C 8043,3887 8034,3911 8018,3932 8001,3954 7977,3972 7949,3984 7920,3996 7888,4003 7855,4003 L 6630,4003 6630,4003 C 6597,4003 6565,3996 6536,3984 6508,3972 6484,3954 6467,3932 6451,3911 6442,3887 6442,3862 L 6442,2943 Z"/>
   </g>
  </g>
  <g class="com.sun.star.drawing.CustomShape">
   <g id="id6">
    <rect class="BoundingBox" stroke="none" fill="none" x="8536" y="2776" width="1656" height="1256"/>
    <path fill="none" stroke="rgb(180,199,220)" stroke-width="53" stroke-linejoin="round" d="M 8563,2944 L 8563,2944 C 8563,2919 8572,2895 8588,2874 8605,2852 8629,2834 8657,2822 8686,2810 8718,2803 8751,2803 L 9975,2803 9976,2803 C 10009,2803 10041,2810 10070,2822 10098,2834 10122,2852 10139,2874 10155,2895 10164,2919 10164,2944 L 10164,2944 10163,3862 10164,3863 C 10164,3888 10155,3912 10139,3933 10122,3955 10098,3973 10070,3985 10041,3997 10009,4004 9976,4004 L 8751,4004 8751,4004 C 8718,4004 8686,3997 8657,3985 8629,3973 8605,3955 8588,3933 8572,3912 8563,3888 8563,3863 L 8563,2944 Z"/>
   </g>
  </g>
  <g class="com.sun.star.drawing.CustomShape">
   <g id="id7">
    <rect class="BoundingBox" stroke="none" fill="none" x="10857" y="2777" width="1656" height="1256"/>
    <path fill="none" stroke="rgb(180,199,220)" stroke-width="53" stroke-linejoin="round" d="M 10884,2945 L 10884,2945 C 10884,2920 10893,2896 10909,2875 10926,2853 10950,2835 10978,2823 11007,2811 11039,2804 11072,2804 L 12296,2804 12297,2804 C 12330,2804 12362,2811 12391,2823 12419,2835 12443,2853 12460,2875 12476,2896 12485,2920 12485,2945 L 12485,2945 12484,3863 12485,3864 C 12485,3889 12476,3913 12460,3934 12443,3956 12419,3974 12391,3986 12362,3998 12330,4005 12297,4005 L 11072,4005 11072,4005 C 11039,4005 11007,3998 10978,3986 10950,3974 10926,3956 10909,3934 10893,3913 10884,3889 10884,3864 L 10884,2945 Z"/>
   </g>
  </g>
  <g class="com.sun.star.drawing.CustomShape">
   <g id="id8">
    <rect class="BoundingBox" stroke="none" fill="none" x="13278" y="2778" width="1656" height="1256"/>
    <path fill="none" stroke="rgb(180,199,220)" stroke-width="53" stroke-linejoin="round" d="M 13305,2946 L 13305,2946 C 13305,2921 13314,2897 13330,2876 13347,2854 13371,2836 13399,2824 13428,2812 13460,2805 13493,2805 L 14717,2805 14718,2805 C 14751,2805 14783,2812 14812,2824 14840,2836 14864,2854 14881,2876 14897,2897 14906,2921 14906,2946 L 14906,2946 14905,3864 14906,3865 C 14906,3890 14897,3914 14881,3935 14864,3957 14840,3975 14812,3987 14783,3999 14751,4006 14718,4006 L 13493,4006 13493,4006 C 13460,4006 13428,3999 13399,3987 13371,3975 13347,3957 13330,3935 13314,3914 13305,3890 13305,3865 L 13305,2946 Z"/>
   </g>
  </g>
  <g class="com.sun.star.drawing.CustomShape">
   <g id="id9">
    <rect class="BoundingBox" stroke="none" fill="none" x="8536" y="4377" width="1656" height="1256"/>
    <path fill="none" stroke="rgb(180,199,220)" stroke-width="53" stroke-linejoin="round" d="M 8563,4545 L 8563,4545 C 8563,4520 8572,4496 8588,4475 8605,4453 8629,4435 8657,4423 8686,4411 8718,4404 8751,4404 L 9975,4404 9976,4404 C 10009,4404 10041,4411 10070,4423 10098,4435 10122,4453 10139,4475 10155,4496 10164,4520 10164,4545 L 10164,4545 10163,5463 10164,5464 C 10164,5489 10155,5513 10139,5534 10122,5556 10098,5574 10070,5586 10041,5598 10009,5605 9976,5605 L 8751,5605 8751,5605 C 8718,5605 8686,5598 8657,5586 8629,5574 8605,5556 8588,5534 8572,5513 8563,5489 8563,5464 L 8563,4545 Z"/>
   </g>
  </g>
  <g class="com.sun.star.drawing.CustomShape">
   <g id="id10">
    <rect class="BoundingBox" stroke="none" fill="none" x="10857" y="4378" width="1656" height="1256"/>
    <path fill="none" stroke="rgb(180,199,220)" stroke-width="53" stroke-linejoin="round" d="M 10884,4546 L 10884,4546 C 10884,4521 10893,4497 10909,4476 10926,4454 10950,4436 10978,4424 11007,4412 11039,4405 11072,4405 L 12296,4405 12297,4405 C 12330,4405 12362,4412 12391,4424 12419,4436 12443,4454 12460,4476 12476,4497 12485,4521 12485,4546 L 12485,4546 12484,5464 12485,5465 C 12485,5490 12476,5514 12460,5535 12443,5557 12419,5575 12391,5587 12362,5599 12330,5606 12297,5606 L 11072,5606 11072,5606 C 11039,5606 11007,5599 10978,5587 10950,5575 10926,5557 10909,5535 10893,5514 10884,5490 10884,5465 L 10884,4546 Z"/>
   </g>
  </g>
  <g class="com.sun.star.drawing.CustomShape">
   <g id="id11">
    <rect class="BoundingBox" stroke="none" fill="none" x="13278" y="4379" width="1656" height="1256"/>
    <path fill="none" stroke="rgb(180,199,220)" stroke-width="53" stroke-linejoin="round" d="M 13305,4547 L 13305,4547 C 13305,4522 13314,4498 13330,4477 13347,4455 13371,4437 13399,4425 13428,4413 13460,4406 13493,4406 L 14717,4406 14718,4406 C 14751,4406 14783,4413 14812,4425 14840,4437 14864,4455 14881,4477 14897,4498 14906,4522 14906,4547 L 14906,4547 14905,5465 14906,5466 C 14906,5491 14897,5515 14881,5536 14864,5558 14840,5576 14812,5588 14783,5600 14751,5607 14718,5607 L 13493,5607 13493,5607 C 13460,5607 13428,5600 13399,5588 13371,5576 13347,5558 13330,5536 13314,5515 13305,5491 13305,5466 L 13305,4547 Z"/>
   </g>
  </g>
  <g class="com.sun.star.drawing.CustomShape">
   <g id="id12">
    <rect class="BoundingBox" stroke="none" fill="none" x="8536" y="5977" width="1656" height="1256"/>
    <path fill="none" stroke="rgb(180,199,220)" stroke-width="53" stroke-linejoin="round" d="M 8563,6145 L 8563,6145 C 8563,6120 8572,6096 8588,6075 8605,6053 8629,6035 8657,6023 8686,6011 8718,6004 8751,6004 L 9975,6004 9976,6004 C 10009,6004 10041,6011 10070,6023 10098,6035 10122,6053 10139,6075 10155,6096 10164,6120 10164,6145 L 10164,6145 10163,7063 10164,7064 C 10164,7089 10155,7113 10139,7134 10122,7156 10098,7174 10070,7186 10041,7198 10009,7205 9976,7205 L 8751,7205 8751,7205 C 8718,7205 8686,7198 8657,7186 8629,7174 8605,7156 8588,7134 8572,7113 8563,7089 8563,7064 L 8563,6145 Z"/>
   </g>
  </g>
  <g class="com.sun.star.drawing.CustomShape">
   <g id="id13">
    <rect class="BoundingBox" stroke="none" fill="none" x="10857" y="5978" width="1656" height="1256"/>
    <path fill="none" stroke="rgb(180,199,220)" stroke-width="53" stroke-linejoin="round" d="M 10884,6146 L 10884,6146 C 10884,6121 10893,6097 10909,6076 10926,6054 10950,6036 10978,6024 11007,6012 11039,6005 11072,6005 L 12296,6005 12297,6005 C 12330,6005 12362,6012 12391,6024 12419,6036 12443,6054 12460,6076 12476,6097 12485,6121 12485,6146 L 12485,6146 12484,7064 12485,7065 C 12485,7090 12476,7114 12460,7135 12443,7157 12419,7175 12391,7187 12362,7199 12330,7206 12297,7206 L 11072,7206 11072,7206 C 11039,7206 11007,7199 10978,7187 10950,7175 10926,7157 10909,7135 10893,7114 10884,7090 10884,7065 L 10884,6146 Z"/>
   </g>
  </g>
  <g class="com.sun.star.drawing.CustomShape">
   <g id="id14">
    <rect class="BoundingBox" stroke="none" fill="none" x="13278" y="5979" width="1656" height="1256"/>
    <path fill="none" stroke="rgb(180,199,220)" stroke-width="53" stroke-linejoin="round" d="M 13305,6147 L 13305,6147 C 13305,6122 13314,6098 13330,6077 13347,6055 13371,6037 13399,6025 13428,6013 13460,6006 13493,6006 L 14717,6006 14718,6006 C 14751,6006 14783,6013 14812,6025 14840,6037 14864,6055 14881,6077 14897,6098 14906,6122 14906,6147 L 14906,6147 14905,7065 14906,7066 C 14906,7091 14897,7115 14881,7136 14864,7158 14840,7176 14812,7188 14783,7200 14751,7207 14718,7207 L 13493,7207 13493,7207 C 13460,7207 13428,7200 13399,7188 13371,7176 13347,7158 13330,7136 13314,7115 13305,7091 13305,7066 L 13305,6147 Z"/>
   </g>
  </g>
  <g class="Group">
   <g class="com.sun.star.drawing.CustomShape">
    <g id="id15">
     <rect class="BoundingBox" stroke="none" fill="none" x="8861" y="7899" width="204" height="204"/>
     <path fill="rgb(114,159,207)" stroke="none" d="M 9063,8001 C 9063,8018 9058,8035 9050,8051 9041,8066 9028,8079 9013,8088 8997,8096 8980,8101 8963,8101 8945,8101 8928,8096 8912,8088 8897,8079 8884,8066 8875,8051 8867,8035 8862,8018 8862,8001 8862,7983 8867,7966 8875,7950 8884,7935 8897,7922 8912,7913 8928,7905 8945,7900 8963,7900 8980,7900 8997,7905 9013,7913 9028,7922 9041,7935 9050,7950 9058,7966 9063,7983 9063,8001 L 9063,8001 Z"/>
     <path fill="none" stroke="rgb(52,101,164)" d="M 9063,8001 C 9063,8018 9058,8035 9050,8051 9041,8066 9028,8079 9013,8088 8997,8096 8980,8101 8963,8101 8945,8101 8928,8096 8912,8088 8897,8079 8884,8066 8875,8051 8867,8035 8862,8018 8862,8001 8862,7983 8867,7966 8875,7950 8884,7935 8897,7922 8912,7913 8928,7905 8945,7900 8963,7900 8980,7900 8997,7905 9013,7913 9028,7922 9041,7935 9050,7950 9058,7966 9063,7983 9063,8001 Z"/>
    </g>
   </g>
   <g class="com.sun.star.drawing.CustomShape">
    <g id="id16">
     <rect class="BoundingBox" stroke="none" fill="none" x="9262" y="7900" width="204" height="204"/>
     <path fill="rgb(114,159,207)" stroke="none" d="M 9464,8002 C 9464,8019 9459,8036 9451,8052 9442,8067 9429,8080 9414,8089 9398,8097 9381,8102 9364,8102 9346,8102 9329,8097 9313,8089 9298,8080 9285,8067 9276,8052 9268,8036 9263,8019 9263,8002 9263,7984 9268,7967 9276,7951 9285,7936 9298,7923 9313,7914 9329,7906 9346,7901 9364,7901 9381,7901 9398,7906 9414,7914 9429,7923 9442,7936 9451,7951 9459,7967 9464,7984 9464,8002 L 9464,8002 Z"/>
     <path fill="none" stroke="rgb(52,101,164)" d="M 9464,8002 C 9464,8019 9459,8036 9451,8052 9442,8067 9429,8080 9414,8089 9398,8097 9381,8102 9364,8102 9346,8102 9329,8097 9313,8089 9298,8080 9285,8067 9276,8052 9268,8036 9263,8019 9263,8002 9263,7984 9268,7967 9276,7951 9285,7936 9298,7923 9313,7914 9329,7906 9346,7901 9364,7901 9381,7901 9398,7906 9414,7914 9429,7923 9442,7936 9451,7951 9459,7967 9464,7984 9464,8002 Z"/>
    </g>
   </g>
   <g class="com.sun.star.drawing.CustomShape">
    <g id="id17">
     <rect class="BoundingBox" stroke="none" fill="none" x="9663" y="7901" width="204" height="204"/>
     <path fill="rgb(114,159,207)" stroke="none" d="M 9865,8003 C 9865,8020 9860,8037 9852,8053 9843,8068 9830,8081 9815,8090 9799,8098 9782,8103 9765,8103 9747,8103 9730,8098 9714,8090 9699,8081 9686,8068 9677,8053 9669,8037 9664,8020 9664,8003 9664,7985 9669,7968 9677,7952 9686,7937 9699,7924 9714,7915 9730,7907 9747,7902 9765,7902 9782,7902 9799,7907 9815,7915 9830,7924 9843,7937 9852,7952 9860,7968 9865,7985 9865,8003 L 9865,8003 Z"/>
     <path fill="none" stroke="rgb(52,101,164)" d="M 9865,8003 C 9865,8020 9860,8037 9852,8053 9843,8068 9830,8081 9815,8090 9799,8098 9782,8103 9765,8103 9747,8103 9730,8098 9714,8090 9699,8081 9686,8068 9677,8053 9669,8037 9664,8020 9664,8003 9664,7985 9669,7968 9677,7952 9686,7937 9699,7924 9714,7915 9730,7907 9747,7902 9765,7902 9782,7902 9799,7907 9815,7915 9830,7924 9843,7937 9852,7952 9860,7968 9865,7985 9865,8003 Z"/>
    </g>
   </g>
  </g>
  <g class="Group">
   <g class="com.sun.star.drawing.CustomShape">
    <g id="id18">
     <rect class="BoundingBox" stroke="none" fill="none" x="11182" y="7900" width="204" height="204"/>
     <path fill="rgb(114,159,207)" stroke="none" d="M 11384,8002 C 11384,8019 11379,8036 11371,8052 11362,8067 11349,8080 11334,8089 11318,8097 11301,8102 11284,8102 11266,8102 11249,8097 11233,8089 11218,8080 11205,8067 11196,8052 11188,8036 11183,8019 11183,8002 11183,7984 11188,7967 11196,7951 11205,7936 11218,7923 11233,7914 11249,7906 11266,7901 11284,7901 11301,7901 11318,7906 11334,7914 11349,7923 11362,7936 11371,7951 11379,7967 11384,7984 11384,8002 L 11384,8002 Z"/>
     <path fill="none" stroke="rgb(52,101,164)" d="M 11384,8002 C 11384,8019 11379,8036 11371,8052 11362,8067 11349,8080 11334,8089 11318,8097 11301,8102 11284,8102 11266,8102 11249,8097 11233,8089 11218,8080 11205,8067 11196,8052 11188,8036 11183,8019 11183,8002 11183,7984 11188,7967 11196,7951 11205,7936 11218,7923 11233,7914 11249,7906 11266,7901 11284,7901 11301,7901 11318,7906 11334,7914 11349,7923 11362,7936 11371,7951 11379,7967 11384,7984 11384,8002 Z"/>
    </g>
   </g>
   <g class="com.sun.star.drawing.CustomShape">
    <g id="id19">
     <rect class="BoundingBox" stroke="none" fill="none" x="11583" y="7901" width="204" height="204"/>
     <path fill="rgb(114,159,207)" stroke="none" d="M 11785,8003 C 11785,8020 11780,8037 11772,8053 11763,8068 11750,8081 11735,8090 11719,8098 11702,8103 11685,8103 11667,8103 11650,8098 11634,8090 11619,8081 11606,8068 11597,8053 11589,8037 11584,8020 11584,8003 11584,7985 11589,7968 11597,7952 11606,7937 11619,7924 11634,7915 11650,7907 11667,7902 11685,7902 11702,7902 11719,7907 11735,7915 11750,7924 11763,7937 11772,7952 11780,7968 11785,7985 11785,8003 L 11785,8003 Z"/>
     <path fill="none" stroke="rgb(52,101,164)" d="M 11785,8003 C 11785,8020 11780,8037 11772,8053 11763,8068 11750,8081 11735,8090 11719,8098 11702,8103 11685,8103 11667,8103 11650,8098 11634,8090 11619,8081 11606,8068 11597,8053 11589,8037 11584,8020 11584,8003 11584,7985 11589,7968 11597,7952 11606,7937 11619,7924 11634,7915 11650,7907 11667,7902 11685,7902 11702,7902 11719,7907 11735,7915 11750,7924 11763,7937 11772,7952 11780,7968 11785,7985 11785,8003 Z"/>
    </g>
   </g>
   <g class="com.sun.star.drawing.CustomShape">
    <g id="id20">
     <rect class="BoundingBox" stroke="none" fill="none" x="11984" y="7902" width="204" height="204"/>
     <path fill="rgb(114,159,207)" stroke="none" d="M 12186,8004 C 12186,8021 12181,8038 12173,8054 12164,8069 12151,8082 12136,8091 12120,8099 12103,8104 12086,8104 12068,8104 12051,8099 12035,8091 12020,8082 12007,8069 11998,8054 11990,8038 11985,8021 11985,8004 11985,7986 11990,7969 11998,7953 12007,7938 12020,7925 12035,7916 12051,7908 12068,7903 12086,7903 12103,7903 12120,7908 12136,7916 12151,7925 12164,7938 12173,7953 12181,7969 12186,7986 12186,8004 L 12186,8004 Z"/>
     <path fill="none" stroke="rgb(52,101,164)" d="M 12186,8004 C 12186,8021 12181,8038 12173,8054 12164,8069 12151,8082 12136,8091 12120,8099 12103,8104 12086,8104 12068,8104 12051,8099 12035,8091 12020,8082 12007,8069 11998,8054 11990,8038 11985,8021 11985,8004 11985,7986 11990,7969 11998,7953 12007,7938 12020,7925 12035,7916 12051,7908 12068,7903 12086,7903 12103,7903 12120,7908 12136,7916 12151,7925 12164,7938 12173,7953 12181,7969 12186,7986 12186,8004 Z"/>
    </g>
   </g>
  </g>
  <g class="Group">
   <g class="com.sun.star.drawing.CustomShape">
    <g id="id21">
     <rect class="BoundingBox" stroke="none" fill="none" x="13603" y="7901" width="204" height="204"/>
     <path fill="rgb(114,159,207)" stroke="none" d="M 13805,8003 C 13805,8020 13800,8037 13792,8053 13783,8068 13770,8081 13755,8090 13739,8098 13722,8103 13705,8103 13687,8103 13670,8098 13654,8090 13639,8081 13626,8068 13617,8053 13609,8037 13604,8020 13604,8003 13604,7985 13609,7968 13617,7952 13626,7937 13639,7924 13654,7915 13670,7907 13687,7902 13705,7902 13722,7902 13739,7907 13755,7915 13770,7924 13783,7937 13792,7952 13800,7968 13805,7985 13805,8003 L 13805,8003 Z"/>
     <path fill="none" stroke="rgb(52,101,164)" d="M 13805,8003 C 13805,8020 13800,8037 13792,8053 13783,8068 13770,8081 13755,8090 13739,8098 13722,8103 13705,8103 13687,8103 13670,8098 13654,8090 13639,8081 13626,8068 13617,8053 13609,8037 13604,8020 13604,8003 13604,7985 13609,7968 13617,7952 13626,7937 13639,7924 13654,7915 13670,7907 13687,7902 13705,7902 13722,7902 13739,7907 13755,7915 13770,7924 13783,7937 13792,7952 13800,7968 13805,7985 13805,8003 Z"/>
    </g>
   </g>
   <g class="com.sun.star.drawing.CustomShape">
    <g id="id22">
     <rect class="BoundingBox" stroke="none" fill="none" x="14004" y="7902" width="204" height="204"/>
     <path fill="rgb(114,159,207)" stroke="none" d="M 14206,8004 C 14206,8021 14201,8038 14193,8054 14184,8069 14171,8082 14156,8091 14140,8099 14123,8104 14106,8104 14088,8104 14071,8099 14055,8091 14040,8082 14027,8069 14018,8054 14010,8038 14005,8021 14005,8004 14005,7986 14010,7969 14018,7953 14027,7938 14040,7925 14055,7916 14071,7908 14088,7903 14106,7903 14123,7903 14140,7908 14156,7916 14171,7925 14184,7938 14193,7953 14201,7969 14206,7986 14206,8004 L 14206,8004 Z"/>
     <path fill="none" stroke="rgb(52,101,164)" d="M 14206,8004 C 14206,8021 14201,8038 14193,8054 14184,8069 14171,8082 14156,8091 14140,8099 14123,8104 14106,8104 14088,8104 14071,8099 14055,8091 14040,8082 14027,8069 14018,8054 14010,8038 14005,8021 14005,8004 14005,7986 14010,7969 14018,7953 14027,7938 14040,7925 14055,7916 14071,7908 14088,7903 14106,7903 14123,7903 14140,7908 14156,7916 14171,7925 14184,7938 14193,7953 14201,7969 14206,7986 14206,8004 Z"/>
    </g>
   </g>
   <g class="com.sun.star.drawing.CustomShape">
    <g id="id23">
     <rect class="BoundingBox" stroke="none" fill="none" x="14405" y="7903" width="204" height="204"/>
     <path fill="rgb(114,159,207)" stroke="none" d="M 14607,8005 C 14607,8022 14602,8039 14594,8055 14585,8070 14572,8083 14557,8092 14541,8100 14524,8105 14507,8105 14489,8105 14472,8100 14456,8092 14441,8083 14428,8070 14419,8055 14411,8039 14406,8022 14406,8005 14406,7987 14411,7970 14419,7954 14428,7939 14441,7926 14456,7917 14472,7909 14489,7904 14507,7904 14524,7904 14541,7909 14557,7917 14572,7926 14585,7939 14594,7954 14602,7970 14607,7987 14607,8005 L 14607,8005 Z"/>
     <path fill="none" stroke="rgb(52,101,164)" d="M 14607,8005 C 14607,8022 14602,8039 14594,8055 14585,8070 14572,8083 14557,8092 14541,8100 14524,8105 14507,8105 14489,8105 14472,8100 14456,8092 14441,8083 14428,8070 14419,8055 14411,8039 14406,8022 14406,8005 14406,7987 14411,7970 14419,7954 14428,7939 14441,7926 14456,7917 14472,7909 14489,7904 14507,7904 14524,7904 14541,7909 14557,7917 14572,7926 14585,7939 14594,7954 14602,7970 14607,7987 14607,8005 Z"/>
    </g>
   </g>
  </g>
  <g class="com.sun.star.drawing.ConnectorShape">
   <g id="id24">
    <rect class="BoundingBox" stroke="none" fill="none" x="3775" y="3310" width="682" height="182"/>
    <path fill="none" stroke="rgb(255,123,89)" stroke-width="50" stroke-linejoin="round" d="M 3800,3400 L 4198,3401"/>
    <path fill="rgb(255,123,89)" stroke="none" d="M 4456,3401 L 4186,3311 4186,3491 4456,3401 Z"/>
   </g>
  </g>
  <g class="com.sun.star.drawing.ConnectorShape">
   <g id="id25">
    <rect class="BoundingBox" stroke="none" fill="none" x="5896" y="3311" width="682" height="182"/>
    <path fill="none" stroke="rgb(255,123,89)" stroke-width="50" stroke-linejoin="round" d="M 5921,3401 L 6319,3402"/>
    <path fill="rgb(255,123,89)" stroke="none" d="M 6577,3402 L 6307,3312 6307,3492 6577,3402 Z"/>
   </g>
  </g>
  <g class="com.sun.star.drawing.ConnectorShape">
   <g id="id26">
    <rect class="BoundingBox" stroke="none" fill="none" x="8017" y="3312" width="682" height="182"/>
    <path fill="none" stroke="rgb(255,123,89)" stroke-width="50" stroke-linejoin="round" d="M 8042,3402 L 8440,3403"/>
    <path fill="rgb(255,123,89)" stroke="none" d="M 8698,3403 L 8428,3313 8428,3493 8698,3403 Z"/>
   </g>
  </g>
  <g class="com.sun.star.drawing.ConnectorShape">
   <g id="id27">
    <rect class="BoundingBox" stroke="none" fill="none" x="9273" y="3978" width="181" height="562"/>
    <path fill="none" stroke="rgb(255,123,89)" stroke-width="50" stroke-linejoin="round" d="M 9363,4003 L 9363,4281"/>
    <path fill="rgb(255,123,89)" stroke="none" d="M 9363,4539 L 9453,4269 9273,4269 9363,4539 Z"/>
   </g>
  </g>
  <g class="com.sun.star.drawing.ConnectorShape">
   <g id="id28">
    <rect class="BoundingBox" stroke="none" fill="none" x="9273" y="5579" width="181" height="561"/>
    <path fill="none" stroke="rgb(255,123,89)" stroke-width="50" stroke-linejoin="round" d="M 9363,5604 L 9363,5881"/>
    <path fill="rgb(255,123,89)" stroke="none" d="M 9363,6139 L 9453,5869 9273,5869 9363,6139 Z"/>
   </g>
  </g>
  <g class="com.sun.star.drawing.LineShape">
   <g id="id29">
    <rect class="BoundingBox" stroke="none" fill="none" x="9310" y="7175" width="181" height="961"/>
    <path fill="none" stroke="rgb(255,123,89)" stroke-width="50" stroke-linejoin="round" d="M 9400,7200 L 9400,7877"/>
    <path fill="rgb(255,123,89)" stroke="none" d="M 9400,8135 L 9490,7865 9310,7865 9400,8135 Z"/>
   </g>
  </g>
  <g class="com.sun.star.drawing.ConnectorShape">
   <g id="id30">
    <rect class="BoundingBox" stroke="none" fill="none" x="11594" y="3979" width="181" height="562"/>
    <path fill="none" stroke="rgb(255,123,89)" stroke-width="50" stroke-linejoin="round" d="M 11684,4004 L 11684,4282"/>
    <path fill="rgb(255,123,89)" stroke="none" d="M 11684,4540 L 11774,4270 11594,4270 11684,4540 Z"/>
   </g>
  </g>
  <g class="com.sun.star.drawing.ConnectorShape">
   <g id="id31">
    <rect class="BoundingBox" stroke="none" fill="none" x="11594" y="5580" width="181" height="561"/>
    <path fill="none" stroke="rgb(255,123,89)" stroke-width="50" stroke-linejoin="round" d="M 11684,5605 L 11684,5882"/>
    <path fill="rgb(255,123,89)" stroke="none" d="M 11684,6140 L 11774,5870 11594,5870 11684,6140 Z"/>
   </g>
  </g>
  <g class="com.sun.star.drawing.ConnectorShape">
   <g id="id32">
    <rect class="BoundingBox" stroke="none" fill="none" x="11594" y="7180" width="181" height="857"/>
    <path fill="none" stroke="rgb(255,123,89)" stroke-width="50" stroke-linejoin="round" d="M 11684,7205 L 11684,7778"/>
    <path fill="rgb(255,123,89)" stroke="none" d="M 11684,8036 L 11774,7766 11594,7766 11684,8036 Z"/>
   </g>
  </g>
  <g class="com.sun.star.drawing.ConnectorShape">
   <g id="id33">
    <rect class="BoundingBox" stroke="none" fill="none" x="14015" y="3980" width="181" height="562"/>
    <path fill="none" stroke="rgb(255,123,89)" stroke-width="50" stroke-linejoin="round" d="M 14105,4005 L 14105,4283"/>
    <path fill="rgb(255,123,89)" stroke="none" d="M 14105,4541 L 14195,4271 14015,4271 14105,4541 Z"/>
   </g>
  </g>
  <g class="com.sun.star.drawing.ConnectorShape">
   <g id="id34">
    <rect class="BoundingBox" stroke="none" fill="none" x="14015" y="5581" width="181" height="561"/>
    <path fill="none" stroke="rgb(255,123,89)" stroke-width="50" stroke-linejoin="round" d="M 14105,5606 L 14105,5883"/>
    <path fill="rgb(255,123,89)" stroke="none" d="M 14105,6141 L 14195,5871 14015,5871 14105,6141 Z"/>
   </g>
  </g>
  <g class="com.sun.star.drawing.ConnectorShape">
   <g id="id35">
    <rect class="BoundingBox" stroke="none" fill="none" x="14015" y="7181" width="181" height="857"/>
    <path fill="none" stroke="rgb(255,123,89)" stroke-width="50" stroke-linejoin="round" d="M 14105,7206 L 14105,7779"/>
    <path fill="rgb(255,123,89)" stroke="none" d="M 14105,8037 L 14195,7767 14015,7767 14105,8037 Z"/>
   </g>
  </g>
  <g class="com.sun.star.drawing.ConnectorShape">
   <g id="id36">
    <rect class="BoundingBox" stroke="none" fill="none" x="9839" y="3314" width="1181" height="4713"/>
    <path fill="none" stroke="rgb(255,123,89)" stroke-width="50" stroke-linejoin="round" d="M 9864,8001 L 10366,8001 10366,5966 10357,5966 10357,3404 10761,3404"/>
    <path fill="rgb(255,123,89)" stroke="none" d="M 11019,3404 L 10749,3314 10749,3494 11019,3404 Z"/>
   </g>
  </g>
  <g class="com.sun.star.drawing.ConnectorShape">
   <g id="id37">
    <rect class="BoundingBox" stroke="none" fill="none" x="12160" y="3315" width="1281" height="4713"/>
    <path fill="none" stroke="rgb(255,123,89)" stroke-width="50" stroke-linejoin="round" d="M 12185,8002 L 12733,8002 12733,3405 13182,3405"/>
    <path fill="rgb(255,123,89)" stroke="none" d="M 13440,3405 L 13170,3315 13170,3495 13440,3405 Z"/>
   </g>
  </g>
 </g>
</svg>